<mxfile host="app.diagrams.net" modified="2022-03-11T10:22:13.419Z" agent="5.0 (Windows)" etag="4n5fTTFpX4s6CEAngWg-" version="17.1.1" type="github">
  <diagram id="Q0McfdbR_vOQXKcCNgqP" name="Page-1">
    <mxGraphModel dx="868" dy="468" grid="1" gridSize="10" guides="1" tooltips="1" connect="1" arrows="1" fold="1" page="1" pageScale="1" pageWidth="850" pageHeight="1100" math="0" shadow="0">
      <root>
        <mxCell id="0" />
        <mxCell id="1" parent="0" />
        <mxCell id="_fdn4rMZbtFpZdUaw8Mi-1" value="" style="strokeWidth=2;html=1;shape=mxgraph.flowchart.terminator;whiteSpace=wrap;" vertex="1" parent="1">
          <mxGeometry x="80" y="80" width="100" height="50" as="geometry" />
        </mxCell>
        <mxCell id="_fdn4rMZbtFpZdUaw8Mi-2" value="Car Enters" style="text;html=1;strokeColor=none;fillColor=none;align=center;verticalAlign=middle;whiteSpace=wrap;rounded=0;" vertex="1" parent="1">
          <mxGeometry x="95" y="90" width="70" height="30" as="geometry" />
        </mxCell>
        <mxCell id="_fdn4rMZbtFpZdUaw8Mi-3" value="" style="endArrow=classic;html=1;rounded=0;exitX=0.5;exitY=1;exitDx=0;exitDy=0;exitPerimeter=0;entryX=0.5;entryY=0;entryDx=0;entryDy=0;" edge="1" parent="1" source="_fdn4rMZbtFpZdUaw8Mi-1" target="_fdn4rMZbtFpZdUaw8Mi-4">
          <mxGeometry width="50" height="50" relative="1" as="geometry">
            <mxPoint x="400" y="270" as="sourcePoint" />
            <mxPoint x="360" y="140" as="targetPoint" />
          </mxGeometry>
        </mxCell>
        <mxCell id="_fdn4rMZbtFpZdUaw8Mi-4" value="" style="rounded=1;whiteSpace=wrap;html=1;absoluteArcSize=1;arcSize=14;strokeWidth=2;" vertex="1" parent="1">
          <mxGeometry x="70" y="160" width="120" height="60" as="geometry" />
        </mxCell>
        <mxCell id="_fdn4rMZbtFpZdUaw8Mi-5" value="Hours = n*10,000" style="text;html=1;strokeColor=none;fillColor=none;align=center;verticalAlign=middle;whiteSpace=wrap;rounded=0;" vertex="1" parent="1">
          <mxGeometry x="80" y="175" width="100" height="30" as="geometry" />
        </mxCell>
        <mxCell id="_fdn4rMZbtFpZdUaw8Mi-6" value="" style="endArrow=classic;html=1;rounded=0;exitX=0.5;exitY=1;exitDx=0;exitDy=0;entryX=0.5;entryY=0;entryDx=0;entryDy=0;" edge="1" parent="1" source="_fdn4rMZbtFpZdUaw8Mi-4" target="_fdn4rMZbtFpZdUaw8Mi-7">
          <mxGeometry width="50" height="50" relative="1" as="geometry">
            <mxPoint x="400" y="270" as="sourcePoint" />
            <mxPoint x="330" y="220" as="targetPoint" />
          </mxGeometry>
        </mxCell>
        <mxCell id="_fdn4rMZbtFpZdUaw8Mi-7" value="" style="shape=parallelogram;perimeter=parallelogramPerimeter;whiteSpace=wrap;html=1;fixedSize=1;strokeWidth=2;" vertex="1" parent="1">
          <mxGeometry x="70" y="250" width="120" height="50" as="geometry" />
        </mxCell>
        <mxCell id="_fdn4rMZbtFpZdUaw8Mi-9" value="Input Hours" style="text;html=1;strokeColor=none;fillColor=none;align=center;verticalAlign=middle;whiteSpace=wrap;rounded=0;" vertex="1" parent="1">
          <mxGeometry x="85" y="260" width="90" height="30" as="geometry" />
        </mxCell>
        <mxCell id="_fdn4rMZbtFpZdUaw8Mi-10" value="" style="endArrow=classic;html=1;rounded=0;exitX=0.5;exitY=1;exitDx=0;exitDy=0;entryX=0.5;entryY=0;entryDx=0;entryDy=0;entryPerimeter=0;" edge="1" parent="1" source="_fdn4rMZbtFpZdUaw8Mi-7" target="_fdn4rMZbtFpZdUaw8Mi-11">
          <mxGeometry width="50" height="50" relative="1" as="geometry">
            <mxPoint x="400" y="270" as="sourcePoint" />
            <mxPoint x="250" y="310" as="targetPoint" />
          </mxGeometry>
        </mxCell>
        <mxCell id="_fdn4rMZbtFpZdUaw8Mi-11" value="" style="strokeWidth=2;html=1;shape=mxgraph.flowchart.decision;whiteSpace=wrap;" vertex="1" parent="1">
          <mxGeometry x="80" y="330" width="100" height="100" as="geometry" />
        </mxCell>
        <mxCell id="_fdn4rMZbtFpZdUaw8Mi-12" value="If Hours&amp;lt;=2" style="text;html=1;strokeColor=none;fillColor=none;align=center;verticalAlign=middle;whiteSpace=wrap;rounded=0;" vertex="1" parent="1">
          <mxGeometry x="95" y="365" width="70" height="30" as="geometry" />
        </mxCell>
        <mxCell id="_fdn4rMZbtFpZdUaw8Mi-13" value="" style="endArrow=classic;html=1;rounded=0;exitX=0.5;exitY=1;exitDx=0;exitDy=0;exitPerimeter=0;" edge="1" parent="1" source="_fdn4rMZbtFpZdUaw8Mi-11">
          <mxGeometry width="50" height="50" relative="1" as="geometry">
            <mxPoint x="400" y="540" as="sourcePoint" />
            <mxPoint x="350" y="471.25" as="targetPoint" />
          </mxGeometry>
        </mxCell>
        <mxCell id="_fdn4rMZbtFpZdUaw8Mi-15" value="" style="shape=parallelogram;perimeter=parallelogramPerimeter;whiteSpace=wrap;html=1;fixedSize=1;strokeWidth=2;" vertex="1" parent="1">
          <mxGeometry x="70" y="450" width="120" height="50" as="geometry" />
        </mxCell>
        <mxCell id="_fdn4rMZbtFpZdUaw8Mi-16" value="Charge Rp10,000" style="text;html=1;strokeColor=none;fillColor=none;align=center;verticalAlign=middle;whiteSpace=wrap;rounded=0;" vertex="1" parent="1">
          <mxGeometry x="100" y="460" width="60" height="30" as="geometry" />
        </mxCell>
      </root>
    </mxGraphModel>
  </diagram>
</mxfile>
